<?xml version="1.0" encoding="UTF-8" standalone="no"?>
<!-- Created with Inkscape (http://www.inkscape.org/) -->

<svg
   width="512"
   height="512"
   viewBox="0 0 512 512"
   version="1.1"
   id="svg1"
   xml:space="preserve"
   inkscape:version="1.3.2 (091e20e, 2023-11-25)"
   sodipodi:docname="isologo.svg"
   inkscape:export-filename="isologo.png"
   inkscape:export-xdpi="96"
   inkscape:export-ydpi="96"
   xmlns:inkscape="http://www.inkscape.org/namespaces/inkscape"
   xmlns:sodipodi="http://sodipodi.sourceforge.net/DTD/sodipodi-0.dtd"
   xmlns="http://www.w3.org/2000/svg"
   xmlns:svg="http://www.w3.org/2000/svg"><sodipodi:namedview
     id="namedview1"
     pagecolor="#ffffff"
     bordercolor="#000000"
     borderopacity="0.25"
     inkscape:showpageshadow="2"
     inkscape:pageopacity="0.0"
     inkscape:pagecheckerboard="0"
     inkscape:deskcolor="#d1d1d1"
     inkscape:document-units="px"
     inkscape:zoom="1.3051863"
     inkscape:cx="266.24552"
     inkscape:cy="240.57868"
     inkscape:window-width="1800"
     inkscape:window-height="1101"
     inkscape:window-x="1920"
     inkscape:window-y="40"
     inkscape:window-maximized="0"
     inkscape:current-layer="g6" /><defs
     id="defs1" /><g
     inkscape:label="Layer 1"
     inkscape:groupmode="layer"
     id="layer1"><g
       id="g6"
       transform="matrix(1.1794422,0,0,1.1794422,-55.698474,-54.654173)"
       inkscape:label="isologo"><path
         style="display:inline;fill:#088ad5;fill-opacity:1"
         d="M 442.45921,202.5774 C 431.28042,213.0429 358.03313,159.06159 320.98065,147.09963 305.4109,142.07311 195.98095,128.15358 127.26163,146.12166 218.43195,-4.273532 448.25105,197.15511 442.45921,202.5774 Z"
         id="path10"
         sodipodi:nodetypes="ssss"
         inkscape:label="amarillo" /><path
         style="display:inline;fill:#00977c;fill-opacity:1"
         d="M 106.16289,434.10018 C 80.561296,383.53259 -18.127805,27.387646 336.95698,149.59746 c 19.98193,6.8772 92.02954,47.90943 108.65248,56.53801 27.28872,14.16494 -121.57326,-21.16708 -189.96693,7.0602 -155.35617,64.11822 -134.97864,249.54651 -149.47964,220.90451 z"
         id="path8"
         sodipodi:nodetypes="sssss"
         inkscape:label="celeste" /><path
         style="display:inline;fill:#9864ff;fill-opacity:1"
         d="M 107.56823,432.93319 C 91.636143,339.29544 82.716393,189.93178 174.47484,142.9184 c 73.87649,-37.85139 184.01174,7.18641 262.08713,56.27478 28.5847,17.97207 47.21231,23.70952 0.70737,15.85059 C 354.72451,201.09442 280.50033,202.91556 255.64253,213.1893 113.40756,271.97509 114.10764,471.36729 107.56823,432.93319 Z"
         id="path7"
         sodipodi:nodetypes="ssssss"
         inkscape:label="azul" /><path
         style="display:inline;fill:#ff0181;fill-opacity:1;fill-rule:nonzero"
         d="m 107.57797,423.0981 c 2.2e-4,-7.23754 1.63414,-98.80661 56.59203,-180.71227 56.09714,-83.60354 111.5385,-98.74224 222.18108,-60.66825 60.73019,20.89828 112.33832,49.61441 71.97077,40.04643 -179.93565,-47.61946 -285.09407,10.10925 -338.66088,186.89167 -9.75111,34.81558 -12.08374,37.6037 -12.083,14.44242 z"
         id="path6"
         sodipodi:nodetypes="ssssss"
         inkscape:label="azul_oscuro" /></g></g></svg>
